<?xml version="1.0" encoding="UTF-8"?>
<!DOCTYPE svg PUBLIC "-//W3C//DTD SVG 1.1//EN" "http://www.w3.org/Graphics/SVG/1.1/DTD/svg11.dtd">
<svg version="1.1" xmlns="http://www.w3.org/2000/svg" xmlns:xlink="http://www.w3.org/1999/xlink" x="0" y="0" width="46.45" height="47.51" viewBox="0, 0, 46.45, 47.51">
  <g id="white-mermaid" transform="translate(-0.015, 0.003)">
    <path d="M31.33,31.8 C31.33,31.8 31.56,30.88 28.92,29.54 C27.35,28.74 25.82,28.92 24.24,28.44 C22.66,27.96 18.68,26.29 18.68,26.29 C17.923,25.304 17.09,24.378 16.19,23.52 C15.373,22.791 14.474,22.16 13.51,21.64 C13.147,21.959 12.834,22.329 12.58,22.74 C12.252,23.24 11.993,23.781 11.81,24.35 C11.627,24.919 15.2,28.64 18.81,29.78 C20.453,30.406 22.192,30.744 23.95,30.78 C24.28,30.78 26.53,30.92 27.89,30.95 C29.083,30.995 30.254,31.284 31.33,31.8 z" fill="#000000"/>
    <path d="M35.11,37.82 C35.226,35.949 34.193,34.195 32.5,33.39 C33.5,36.91 30.39,39.39 30.39,39.39 C28.831,40.266 27.144,40.89 25.39,41.24 C21.68,42.22 17.33,38.36 17.33,38.36 C16.232,37.485 15.227,36.5 14.33,35.42 C12.53,33.34 11.91,32.34 11.39,30.54 C10.963,28.74 10.818,26.885 10.96,25.04 C10.992,24.278 11.186,23.531 11.53,22.85 C12.121,22.091 12.621,21.265 13.02,20.39 C13.14,19.77 12.45,19.9 12.45,19.9 C12.45,19.9 9.94,21.37 8.83,19.38 C8.1,18.07 8.4,16.88 7.37,16.53 C7.37,16.53 6.37,20.63 3.42,21.41 C1.25,21.98 1.08,19.57 1.08,19.57 C0.64,21.146 0.306,22.75 0.08,24.37 C-0.128,27.067 0.164,29.779 0.94,32.37 C1.94,36 4.33,39.2 6.94,41.78 C9.58,44.59 13.036,46.499 16.82,47.24 C20.31,47.98 25.82,47.13 28.59,45.34 C29.796,44.518 30.86,43.505 31.74,42.34 L31.74,42.34 C34.46,40.79 39.23,42.12 39.23,42.12 C39.33,39.55 35.11,37.82 35.11,37.82 z" fill="#000000"/>
    <path d="M15.96,3.66 C17.9,1.43 17.34,0.66 17.34,0.66 C16.529,1.541 15.545,2.246 14.45,2.73 C13.19,3.27 11.17,4.27 10.86,4.37 C9.246,5.068 7.765,6.039 6.48,7.24 C3.58,9.65 2.04,14.9 2.04,14.9 L1.86,15.59 C1.717,16.398 1.674,17.221 1.73,18.04 C1.855,18.883 2.251,19.663 2.86,20.26 C3.1,20.6 4.68,19.61 5.66,18.12 C6.64,16.63 6.33,15.76 6.33,15.76 L5.92,15.02 C6.119,14.697 6.299,14.363 6.46,14.02 C6.973,12.888 7.398,11.718 7.73,10.52 C8.062,9.322 10.79,7.52 12.08,6.44 C13.37,5.36 14.8,4.99 15.96,3.66 z" fill="#000000"/>
    <path d="M45.16,17.39 L39.35,7.33 L33.55,17.39 L45.16,17.39 z" fill="#000000"/>
    <path d="M33.37,1.416 C35.481,3.396 35.586,6.712 33.606,8.823 C31.625,10.933 28.309,11.038 26.199,9.058 C24.089,7.078 23.983,3.762 25.964,1.651 C27.944,-0.459 31.26,-0.564 33.37,1.416 z" fill="#000000"/>
    <path d="M46.465,26.331 L39.934,32.753 L33.511,26.222 L40.042,19.8 z" fill="#000000"/>
    <path d="M20.11,13.24 L16.48,14.62 C16.577,15.098 16.577,15.592 16.48,16.07 C17.79,15.73 20.18,15.07 21.48,14.7 C22.759,14.353 24.09,14.234 25.41,14.35 C25.276,13.695 24.887,13.12 24.33,12.75 C23.87,12.594 23.386,12.52 22.9,12.53 C21.931,12.568 20.98,12.81 20.11,13.24 z" fill="#000000"/>
    <path d="M23.33,17.16 C23.932,17.127 24.522,16.981 25.07,16.73 C25.4,16.42 24.64,15.05 24.64,15.05 C24.307,15.03 23.973,15.03 23.64,15.05 C22.372,15.228 21.119,15.499 19.89,15.86 L16.33,16.66 C16.216,16.953 16.069,17.232 15.89,17.49 L19.59,17.6 z" fill="#000000"/>
    <path d="M16.96,10.85 C16.61,11.07 15.65,11.85 14.96,12.39 C15.169,12.522 15.363,12.677 15.54,12.85 C17.02,11.759 18.628,10.856 20.33,10.16 C21.325,9.987 22.344,10.01 23.33,10.23 C24.316,10.45 23.91,10.67 22.82,9.59 C21.73,8.51 21.01,8.59 21.01,8.59 C20.589,8.668 20.179,8.799 19.79,8.98 C18.816,9.555 17.871,10.179 16.96,10.85 z" fill="#000000"/>
    <path d="M22.21,11.93 C23.29,11.71 23.42,11.83 23.42,11.83 C23.36,11.593 23.262,11.366 23.13,11.16 C22.998,10.954 23.05,10.89 22.32,10.74 C21.537,10.631 20.74,10.703 19.99,10.95 C18.577,11.628 17.217,12.41 15.92,13.29 C15.92,13.35 16.02,13.39 16.05,13.46 C16.153,13.639 16.24,13.826 16.31,14.02 L19.01,13.02 C20.052,12.587 21.121,12.223 22.21,11.93 z" fill="#000000"/>
    <path d="M14.54,9.89 C13.947,10.467 13.398,11.089 12.9,11.75 C13.41,11.757 13.913,11.865 14.38,12.07 C15.18,11.44 16.5,10.41 17.38,9.78 C18.347,9.103 19.387,8.536 20.48,8.09 C21.573,7.644 19.99,7.33 19.48,7.24 C18.97,7.15 18.71,7.41 17.55,7.95 C16.482,8.491 15.473,9.141 14.54,9.89 z" fill="#000000"/>
    <path d="M26.33,17.03 L25.54,17.28 C25.19,17.39 22.54,17.83 21.62,17.99 C20.196,18.155 18.762,18.212 17.33,18.16 L15.33,18.16 C15.171,18.31 15,18.447 14.82,18.57 C16.33,18.99 19.31,19.81 20.82,20.03 C22.494,20.218 24.188,20.1 25.82,19.68 C26.58,19.49 26.82,19.42 26.92,18.75 C26.888,18.133 26.684,17.537 26.33,17.03 z" fill="#000000"/>
    <path d="M10.73,12.37 C11.132,12.132 11.572,11.963 12.03,11.87 C12.875,10.751 13.83,9.719 14.88,8.79 C15.918,8.057 17.023,7.424 18.18,6.9 C19.337,6.376 17.18,5.9 15.24,6.9 C14.001,7.539 12.908,8.427 12.03,9.51 C11.152,10.593 9.19,13.27 9.03,14.36 C9.03,14.42 9.03,14.46 9.03,14.52 C9.333,13.629 9.933,12.87 10.73,12.37 z" fill="#000000"/>
    <path d="M20.4,20.57 C20.4,20.57 15.02,19.28 14.6,19.14 C14.429,19.078 14.262,19.004 14.1,18.92 C13.806,19.052 13.497,19.15 13.18,19.21 C14.758,20.117 16.436,20.838 18.18,21.36 C19.768,21.897 21.463,22.044 23.12,21.79 C23.904,21.746 24.577,21.22 24.81,20.47 C23.346,20.643 21.87,20.676 20.4,20.57 z" fill="#000000"/>
    <path d="M15.53,13.778 C16.42,15.234 15.861,17.197 14.282,18.161 C12.703,19.126 10.702,18.727 9.812,17.27 C8.923,15.814 9.481,13.852 11.06,12.887 C12.639,11.923 14.64,12.321 15.53,13.778 z" fill="#000000"/>
  </g>
</svg>
