<svg xmlns="http://www.w3.org/2000/svg" xmlns:xlink="http://www.w3.org/1999/xlink" version="1.1" x="0px" y="0px" viewBox="0 0 100 125" enable-background="new 0 0 100 100" xml:space="preserve"><path d="M75.493,45.342c-1.31,1.321-1.313,3.453,0.004,4.771c1.318,1.314,3.45,1.314,4.766-0.003c1.314-1.314,1.317-3.451,0-4.77  C78.949,44.024,76.812,44.024,75.493,45.342z M95.565,49.937c-5.479-9.932-13.523-17.233-22.821-21.125  c-5.911-6.439-12.968-9.896-20.992-10.252c-9.58-0.455-18.624,3.813-23.343,8.199c-0.363,0.337-0.536,0.835-0.46,1.326  c0.077,0.49,0.391,0.911,0.839,1.125c0.029,0.014,2.754,1.377,1.928,5.936c-2.83,2.295-5.448,4.977-7.799,8.014  c-3.441-6.673-10.747-9.714-17.038-9.726c-0.001,0-0.001,0-0.003,0c-0.75,0-1.384,0.556-1.483,1.3  c-0.059,0.44-1.279,10.166,4.052,15.929c-5.331,5.763-4.111,15.489-4.052,15.929c0.099,0.743,0.733,1.3,1.483,1.3  c0.002,0,0.002,0,0.003,0c6.292-0.012,13.599-3.055,17.04-9.729c3.94,5.089,8.63,9.171,13.808,12.117  c-2.336,3.929-2.414,7.987-0.071,10.325c1.14,1.141,2.694,1.73,4.493,1.73c0.667,0,1.368-0.08,2.094-0.244  c2.438-0.552,4.925-2,7-4.074c0.8-0.8,1.496-1.672,2.101-2.582c1.537,0.178,3.091,0.283,4.656,0.283h0.006  c15.742-0.004,30.157-9.1,38.56-24.333C95.812,50.934,95.812,50.387,95.565,49.937z M21.143,54.701  c-2.099,6.492-8.26,9.681-13.887,10.137c-0.128-2.867,0.075-9.56,4.315-13.016c0.35-0.285,0.551-0.71,0.551-1.16  c0-0.451-0.201-0.876-0.551-1.161c-4.225-3.443-4.435-10.145-4.313-13.016c5.625,0.458,11.785,3.647,13.884,10.137  c0.269,0.832,0.422,2.339,0.411,4.049C21.565,52.362,21.412,53.869,21.143,54.701z M51.621,21.551  c5.175,0.23,9.909,1.934,14.159,5.024c-2.859-0.633-5.798-0.963-8.783-0.963c-8.29,0-16.234,2.55-23.152,7.233  c-0.149-2.42-1.125-4.039-2.059-5.024C36.227,24.384,43.788,21.207,51.621,21.551z M48.127,75.899  c-1.682,1.68-3.651,2.842-5.543,3.27c-0.953,0.218-2.718,0.412-3.813-0.681c-1.323-1.323-1.042-4.115,0.598-6.815  c3.083,1.479,6.314,2.567,9.645,3.237C48.733,75.248,48.444,75.582,48.127,75.899z M57.006,72.723L57,74.219v-1.496  c-12.75,0-24.672-6.5-32.808-17.856l-0.001-0.01c0.317-1.456,0.364-3.196,0.356-4.185c0.007-1.007-0.04-2.754-0.358-4.211  l0.001-0.009C32.327,35.1,44.245,28.605,57.006,28.605c14.387,0,27.613,8.228,35.529,22.055  C84.618,64.487,71.392,72.72,57.006,72.723z M60.539,38.718c-0.584-0.584-1.531-0.584-2.115,0  c-6.585,6.584-6.586,17.294-0.002,23.879c0.001,0.001,0.001,0.003,0.002,0.004c0.584,0.585,1.531,0.584,2.115,0  c0.585-0.585,0.586-1.532,0.001-2.116c-5.417-5.418-5.417-14.233,0-19.65C61.125,40.25,61.124,39.303,60.539,38.718z M50.159,42.956  L50.159,42.956c0.584-0.585,0.583-1.533-0.002-2.117c-0.584-0.584-1.531-0.584-2.115,0c-5.416,5.416-5.416,14.228,0,19.643  c0.584,0.584,1.531,0.584,2.115,0c0.585-0.585,0.586-1.532,0.002-2.116C45.911,54.117,45.911,47.204,50.159,42.956z M39.763,43.023  c-0.584-0.584-1.531-0.584-2.115,0c-4.211,4.211-4.211,11.064,0,15.274c0.584,0.585,1.531,0.584,2.115,0  c0.585-0.585,0.586-1.532,0.001-2.116c0,0,0,0-0.001-0.001c-3.043-3.046-3.042-7.996,0.001-11.041  C40.349,44.555,40.348,43.607,39.763,43.023z"/><text x="0" y="115" fill="#000000" font-size="5px" font-weight="bold" font-family="'Helvetica Neue', Helvetica, Arial-Unicode, Arial, Sans-serif">Created by Sergey Demushkin</text><text x="0" y="120" fill="#000000" font-size="5px" font-weight="bold" font-family="'Helvetica Neue', Helvetica, Arial-Unicode, Arial, Sans-serif">from the Noun Project</text></svg>