<?xml version="1.0" encoding="UTF-8"?>
<!DOCTYPE svg PUBLIC "-//W3C//DTD SVG 1.1//EN" "http://www.w3.org/Graphics/SVG/1.1/DTD/svg11.dtd">
<svg version="1.1" xmlns="http://www.w3.org/2000/svg" xmlns:xlink="http://www.w3.org/1999/xlink" x="0" y="0" width="86.48" height="64.717" viewBox="0, 0, 86.48, 64.717">
  <g id="Layer_1" transform="translate(-6.77, -17.633)">
    <path d="M93.25,51.11 C93.242,60.109 87.559,68.124 79.07,71.11 L31.43,23.49 C36.438,18.637 43.546,16.62 50.357,18.119 C57.167,19.618 62.772,24.433 65.28,30.94 C71.762,28.77 78.893,29.854 84.438,33.852 C89.982,37.85 93.262,44.274 93.25,51.11 z M27.74,28.29 L22.42,23 L18.18,27.24 L25.48,34.54 C25.234,35.819 25.11,37.118 25.11,38.42 C24.67,38.42 24.23,38.35 23.77,38.35 C14.381,38.35 6.77,45.961 6.77,55.35 C6.77,64.739 14.381,72.35 23.77,72.35 L63.33,72.35 L73.33,82.35 L77.58,78.1 L71.83,72.35 z" fill="#000000"/>
  </g>
</svg>
